<svg xmlns="http://www.w3.org/2000/svg" viewBox="0 0 1000 900"><path fill="#0f1d33" fill-rule="evenodd" d="M0.0 450.0L0.0 0.0L500.0 0.0L1000.0 0.0L1000.0 450.0L1000.0 900.0L500.0 900.0L0.0 900.0L0.0 450.0ZM104.0 874.0C105.0 872.1 106.1 872.0 120.0 872.0C133.9 872.0 135.0 872.1 136.0 874.0C137.0 875.9 138.1 876.0 153.6 876.0L170.1 876.0L175.0 871.0C179.4 866.7 180.0 865.6 180.0 862.0C180.0 858.4 179.4 857.3 175.1 853.0C170.3 848.2 170.1 848.1 163.3 847.8L156.5 847.5L156.5 826.0L156.5 804.5L311.3 804.2L466.1 804.0L469.1 806.9L472.0 809.9L471.8 828.7L471.5 847.5L464.7 847.8C457.9 848.1 457.7 848.2 452.9 853.0L447.9 858.0L448.2 864.7L448.5 871.5L451.7 871.8C453.7 872.0 455.4 872.9 456.0 874.1C457.6 877.0 474.4 877.0 476.0 874.0C477.0 872.1 478.1 872.0 492.0 872.0C505.9 872.0 507.0 872.1 508.0 874.0C509.0 875.8 510.1 876.0 519.6 876.0C529.3 876.0 530.3 875.8 532.1 873.8L534.0 871.5L536.0 874.0L538.0 876.5L539.9 874.3C540.9 873.1 543.0 872.0 544.6 871.8L547.5 871.5L547.5 862.0L547.5 852.5L544.3 852.2C542.3 852.0 540.6 851.1 540.0 850.0C539.2 848.6 537.7 848.0 533.7 847.8L528.5 847.5L528.5 826.0L528.5 804.5L664.0 804.5L799.5 804.5L799.5 826.0L799.5 847.5L792.7 847.8C785.9 848.1 785.7 848.2 780.9 853.0C774.7 859.2 774.1 864.3 778.9 869.1C781.8 871.9 782.1 872.0 792.4 872.0C801.9 872.0 803.0 872.2 804.0 874.0C805.0 875.9 806.1 876.0 826.0 876.0C845.9 876.0 847.0 875.9 848.0 874.0C849.5 871.3 854.5 871.3 856.0 874.0C857.5 876.9 866.4 876.9 868.0 874.1C868.6 872.9 870.3 872.0 872.3 871.8C875.0 871.5 875.5 871.1 875.8 868.5C876.0 866.9 877.1 864.7 878.3 863.8L880.5 862.0L878.3 860.2C877.1 859.3 876.0 857.1 875.8 855.5C875.5 852.9 875.0 852.5 872.3 852.2C870.3 852.0 868.6 851.1 868.0 850.0C867.2 848.6 865.7 848.0 861.7 847.8L856.5 847.5L856.5 826.0L856.5 804.5L877.3 804.2L898.2 804.0L901.1 801.1L904.0 798.2L904.2 759.3L904.5 720.5L913.7 720.2C921.7 720.0 923.1 719.7 924.0 718.0C924.8 716.4 926.1 716.0 930.0 716.0C933.9 716.0 935.2 715.6 936.0 714.0C936.7 712.8 938.1 712.0 939.8 712.0C941.7 712.0 943.5 710.8 946.0 708.0C948.2 705.5 950.4 704.0 951.8 704.0C954.8 704.0 960.0 698.8 960.0 695.8C960.0 694.4 961.5 692.2 964.0 690.0C966.8 687.5 968.0 685.7 968.0 683.8C968.0 682.1 968.8 680.7 970.0 680.0C971.6 679.2 972.0 677.9 972.0 674.0C972.0 670.1 972.4 668.8 974.0 668.0C977.1 666.4 977.1 641.6 974.0 640.0C972.4 639.2 972.0 637.9 972.0 634.0C972.0 630.1 971.6 628.8 970.0 628.0C968.8 627.3 968.0 625.9 968.0 624.2C968.0 622.3 966.8 620.5 964.0 618.0C961.5 615.8 960.0 613.6 960.0 612.2C960.0 609.2 954.8 604.0 951.8 604.0C950.4 604.0 948.2 602.5 946.0 600.0C943.5 597.2 941.7 596.0 939.8 596.0C938.1 596.0 936.7 595.2 936.0 594.0C935.2 592.4 933.9 592.0 930.0 592.0C926.1 592.0 924.8 591.6 924.0 590.0C922.9 588.0 921.9 588.0 861.5 588.0C808.2 588.0 800.0 587.8 800.0 586.5C800.0 585.7 800.9 584.6 802.0 584.0C804.6 582.6 804.6 580.3 802.0 579.5C800.6 579.1 800.0 578.0 800.0 576.0C800.0 574.1 800.7 572.7 802.0 572.0C804.0 570.9 804.0 569.9 804.0 484.0C804.0 399.0 804.0 397.0 802.1 396.0C800.9 395.4 800.0 393.7 799.8 391.7C799.5 388.9 799.1 388.5 796.3 388.2C794.3 388.0 792.6 387.1 792.0 386.0C791.1 384.3 789.6 384.0 777.7 383.8L764.5 383.5L764.2 356.3C764.0 329.9 764.0 329.1 766.0 328.0C767.9 327.0 768.0 326.0 768.0 296.0C768.0 266.1 767.9 265.0 766.0 264.0C763.0 262.4 763.0 245.6 766.0 244.0C768.9 242.4 768.9 233.6 766.0 232.0C763.0 230.4 763.0 213.6 766.0 212.0C767.9 211.0 768.0 209.9 768.0 182.0C768.0 154.1 767.9 153.0 766.0 152.0C764.3 151.1 764.0 149.9 764.0 144.4C764.0 137.9 764.0 137.9 759.0 133.0L754.1 128.0L722.0 128.0L689.9 128.0L685.0 132.9L680.0 137.9L679.8 260.7L679.5 383.5L610.6 383.8C539.7 384.0 536.5 383.9 541.8 380.3C543.9 378.8 544.0 378.2 544.0 363.9C544.0 350.1 543.9 349.0 542.0 348.0C540.5 347.2 540.0 345.9 540.0 342.4C540.0 338.7 539.4 337.3 537.1 334.9L534.2 332.0L360.0 332.0L185.9 332.0L181.0 336.9L176.1 341.8L175.8 352.7L175.5 363.5L140.3 363.8C106.3 364.0 105.0 364.1 104.0 366.0C103.4 367.2 101.9 368.0 100.4 368.0C97.1 368.0 92.0 373.1 92.0 376.4C92.0 377.9 91.2 379.4 90.0 380.0C88.7 380.7 88.0 382.1 88.0 384.0C88.0 385.9 87.3 387.3 86.0 388.0C84.4 388.8 84.0 390.1 84.0 394.0C84.0 397.9 83.6 399.2 82.1 400.0C80.9 400.6 80.0 402.3 79.8 404.3L79.5 407.5L60.3 407.8C42.3 408.0 41.0 408.2 40.0 410.0C39.4 411.2 37.9 412.0 36.4 412.0C34.9 412.0 32.6 413.2 30.9 414.9L28.0 417.8L28.0 608.0L28.0 798.2L30.9 801.1L33.8 804.0L66.7 804.2L99.5 804.5L99.5 826.0L99.5 847.5L92.7 847.8C85.9 848.1 85.7 848.2 80.9 853.0C74.0 859.9 74.0 864.0 80.8 871.0L85.5 875.9L94.2 875.9C101.9 876.0 103.1 875.8 104.0 874.0ZM120.5 846.8C120.2 846.0 120.1 836.2 120.2 825.0L120.5 804.5L128.0 804.5L135.5 804.5L135.5 826.0L135.5 847.5L128.2 847.8C122.9 848.0 120.8 847.7 120.5 846.8ZM492.4 846.7C492.2 846.0 492.1 836.2 492.2 825.0L492.5 804.5L497.3 804.2C501.6 803.9 502.5 804.2 505.3 807.0L508.5 810.2L506.2 811.7C504.1 813.2 504.0 813.8 504.0 828.0C504.0 842.0 504.1 842.8 506.2 844.2C509.8 846.6 507.5 848.0 499.9 848.0C495.2 848.0 492.8 847.6 492.4 846.7ZM820.5 846.8C820.2 846.0 820.1 836.2 820.2 825.0L820.5 804.5L825.3 804.2C829.6 803.9 830.5 804.3 833.3 807.0L836.5 810.1L834.3 811.8C832.1 813.4 832.0 814.2 831.8 830.5L831.5 847.5L826.2 847.8C822.6 848.0 820.8 847.7 820.5 846.8ZM48.5 778.7C48.2 778.0 48.1 764.7 48.2 749.0L48.5 720.5L81.4 720.2C115.5 720.0 119.2 720.4 114.2 723.7C112.1 725.2 112.0 725.9 112.0 738.1C112.0 749.8 112.2 751.0 113.9 752.0C115.1 752.6 116.0 754.3 116.2 756.3L116.5 759.5L123.3 759.8C129.6 760.1 130.2 759.9 133.0 757.1L136.0 754.2L136.2 581.3L136.5 408.5L278.0 408.5L419.5 408.5L419.5 594.0L419.5 779.5L234.2 779.8C85.5 780.0 48.8 779.8 48.5 778.7ZM440.5 778.8C440.2 778.1 440.1 694.5 440.2 593.0L440.5 408.5L498.0 408.5L555.5 408.5L555.5 594.0L555.5 779.5L498.2 779.8C452.9 780.0 440.8 779.8 440.5 778.8ZM576.5 778.7C576.2 778.0 576.1 764.7 576.2 749.0L576.5 720.5L728.0 720.5L879.5 720.5L879.8 735.7C880.0 749.7 880.2 751.0 882.0 752.0C885.0 753.6 885.0 770.5 882.0 771.5C879.4 772.3 879.4 774.6 882.0 776.0C883.1 776.6 884.0 777.7 884.0 778.5C884.0 780.6 577.2 780.8 576.5 778.7ZM48.5 694.8C48.2 694.1 48.1 634.8 48.2 563.0L48.5 432.5L80.0 432.5L111.5 432.5L111.8 541.7C112.0 649.7 112.0 650.9 114.0 652.0C115.9 653.0 116.0 654.1 116.0 668.0C116.0 681.9 115.9 683.0 114.0 684.0C111.2 685.5 111.3 690.6 114.1 691.5C115.3 691.9 116.0 692.9 115.8 693.8C115.5 695.3 112.3 695.5 82.2 695.8C56.1 696.0 48.8 695.8 48.5 694.8ZM576.7 695.3C576.3 695.0 576.0 689.8 576.0 683.9C576.0 674.1 576.2 673.0 578.0 672.0C579.4 671.2 580.0 669.9 580.0 667.5C580.0 664.7 580.4 664.0 582.0 664.0C584.1 664.0 584.5 665.2 584.1 670.7C583.9 673.4 584.7 674.8 588.9 679.0L593.9 684.0L602.4 684.0C609.9 684.0 611.1 683.8 612.0 682.0C612.6 680.8 614.1 680.0 615.6 680.0C617.3 680.0 620.1 677.9 625.0 673.0L632.0 666.1L632.0 653.6C632.0 642.1 631.8 641.0 630.0 640.0C628.8 639.4 628.0 637.9 628.0 636.4C628.0 634.9 626.8 632.6 625.1 630.9C623.4 629.2 621.1 628.0 619.6 628.0C618.1 628.0 616.6 627.2 616.0 626.0C615.0 624.2 613.9 624.0 604.4 624.0L593.8 624.0L587.9 630.1C583.1 635.1 581.6 636.1 579.3 635.8L576.5 635.5L576.5 624.0L576.5 612.5L749.7 612.2C922.1 612.0 922.9 612.0 924.0 614.0C924.7 615.3 926.1 616.0 928.0 616.0C929.9 616.0 931.3 616.7 932.0 618.0C932.6 619.2 934.1 620.0 935.6 620.0C939.0 620.0 948.0 629.0 948.0 632.4C948.0 633.9 948.8 635.4 950.0 636.0C951.9 637.0 952.0 638.1 952.0 654.0C952.0 669.9 951.9 671.0 950.0 672.0C948.8 672.6 948.0 674.1 948.0 675.6C948.0 679.0 939.0 688.0 935.6 688.0C934.1 688.0 932.6 688.8 932.0 690.0C931.3 691.3 929.9 692.0 928.0 692.0C926.1 692.0 924.7 692.7 924.0 694.0C922.9 696.0 921.9 696.0 750.1 696.0C655.1 696.0 577.0 695.7 576.7 695.3ZM723.0 675.0L732.0 666.1L732.0 654.0L732.0 641.9L723.0 633.0L714.1 624.0L701.6 624.0C690.1 624.0 689.0 624.2 688.0 626.0C687.4 627.2 685.9 628.0 684.4 628.0C682.9 628.0 680.6 629.2 678.9 630.9C677.2 632.6 676.0 634.9 676.0 636.4C676.0 637.9 675.2 639.4 674.0 640.0C672.4 640.8 672.0 642.1 672.0 645.9C672.0 649.8 671.6 651.1 669.8 652.4L667.5 654.0L669.8 655.6C671.5 656.9 672.0 658.2 672.0 661.6C672.0 665.8 672.4 666.5 680.8 675.0L689.5 683.9L701.8 683.9L714.1 684.0L723.0 675.0ZM823.0 675.0C829.5 668.5 832.0 665.4 832.0 663.6C832.0 662.1 832.8 660.6 834.0 660.0C835.6 659.2 836.0 657.9 836.0 654.0C836.0 650.1 835.6 648.8 834.0 648.0C832.7 647.3 832.0 645.9 832.0 644.0C832.0 642.1 831.3 640.7 830.0 640.0C828.8 639.4 828.0 637.9 828.0 636.4C828.0 633.1 822.9 628.0 819.6 628.0C818.1 628.0 816.6 627.2 816.0 626.0C815.0 624.2 813.9 624.0 802.4 624.0L789.9 624.0L783.0 631.0C778.1 635.9 776.0 638.7 776.0 640.4C776.0 641.9 775.2 643.4 774.0 644.0C772.2 645.0 772.0 646.1 772.0 655.6L772.0 666.1L779.0 673.0C783.9 677.9 786.7 680.0 788.4 680.0C789.9 680.0 791.4 680.8 792.0 682.0C793.0 683.8 794.1 684.0 803.6 684.0L814.1 684.0L823.0 675.0ZM923.0 675.0L932.0 666.1L932.0 653.6C932.0 642.1 931.8 641.0 930.0 640.0C928.8 639.4 928.0 637.9 928.0 636.4C928.0 634.9 926.8 632.6 925.1 630.9C923.4 629.2 921.1 628.0 919.6 628.0C918.1 628.0 916.6 627.2 916.0 626.0C915.0 624.2 913.9 624.0 904.0 624.0C894.1 624.0 893.0 624.2 892.0 626.0C891.4 627.2 889.9 628.0 888.4 628.0C886.7 628.0 884.3 629.6 881.0 633.0C877.6 636.3 876.0 638.7 876.0 640.4C876.0 641.9 875.2 643.4 874.0 644.0C872.2 644.9 872.0 646.1 872.0 654.0C872.0 661.9 872.2 663.1 874.0 664.0C875.2 664.6 876.0 666.1 876.0 667.6C876.0 669.3 878.1 672.2 882.8 677.0L889.5 683.9L901.8 683.9L914.1 684.0L923.0 675.0ZM590.8 661.0C587.5 657.6 587.2 653.5 589.9 652.0C591.1 651.4 592.0 649.7 592.2 647.7L592.5 644.5L602.0 644.5L611.5 644.5L611.5 654.0L611.5 663.5L602.5 663.7C593.7 663.9 593.4 663.9 590.8 661.0ZM692.7 663.3C692.3 663.0 692.0 661.4 692.0 660.0C692.0 658.3 691.1 656.6 689.8 655.7L687.5 654.1L689.7 652.3C690.9 651.3 692.0 649.1 692.2 647.5C692.4 645.0 693.0 644.4 695.4 644.2C697.0 644.0 699.1 642.9 700.1 641.7L701.8 639.5L706.9 644.7C713.3 651.3 713.9 656.2 709.1 661.1C706.5 663.7 705.5 664.0 699.7 664.0C696.2 664.0 693.0 663.7 692.7 663.3ZM794.8 661.0C790.8 656.9 790.9 650.9 795.0 646.9C797.8 644.1 798.4 643.9 804.7 644.2C811.4 644.5 811.5 644.5 811.8 647.5C812.0 649.1 813.1 651.3 814.3 652.2L816.5 654.0L814.3 655.8C813.1 656.7 812.0 658.9 811.8 660.5C811.5 663.5 811.5 663.5 804.5 663.7C797.9 663.9 797.3 663.8 794.8 661.0ZM894.8 661.0C890.8 656.9 890.9 650.9 895.0 646.9C897.8 644.1 898.4 643.9 904.7 644.2C911.4 644.5 911.5 644.5 911.8 647.5C912.0 649.1 913.1 651.3 914.3 652.2L916.5 654.0L914.3 655.8C913.1 656.7 912.0 658.9 911.8 660.5C911.5 663.5 911.5 663.5 904.5 663.7C897.9 663.9 897.3 663.8 894.8 661.0ZM368.0 622.1C368.6 620.9 370.3 620.0 372.3 619.8L375.5 619.5L375.8 548.7L376.0 477.9L373.1 474.9L370.2 472.0L278.0 472.0L185.9 472.0L181.0 477.0L176.0 481.9L176.0 546.4C176.0 609.2 176.1 611.0 177.9 612.0C179.1 612.6 180.0 614.3 180.2 616.3C180.5 619.1 180.9 619.5 183.7 619.8C185.7 620.0 187.4 620.9 188.0 622.1C189.0 624.0 191.1 624.0 278.0 624.0C364.9 624.0 367.0 624.0 368.0 622.1ZM485.1 617.1C487.7 614.5 488.0 613.5 488.0 608.0C488.0 602.5 487.7 601.5 485.1 598.9C482.5 596.3 481.5 596.0 476.0 596.0C470.5 596.0 469.5 596.3 466.9 598.9C462.7 603.1 462.6 612.7 466.8 617.0C469.2 619.6 470.2 619.9 475.8 620.0C481.5 620.0 482.4 619.7 485.1 617.1ZM529.1 617.1C531.7 614.5 532.0 613.5 532.0 608.0C532.0 602.5 531.7 601.5 529.1 598.9C526.5 596.3 525.5 596.0 520.0 596.0C514.5 596.0 513.5 596.3 510.9 598.9C506.7 603.1 506.6 612.7 510.8 617.0C513.2 619.6 514.2 619.9 519.8 620.0C525.5 620.0 526.4 619.7 529.1 617.1ZM200.5 598.8C200.2 598.1 200.1 573.9 200.2 545.0L200.5 492.5L239.4 492.2C277.3 492.0 278.4 492.0 280.2 494.0C282.6 496.6 285.4 496.6 287.8 494.0C289.6 492.0 290.7 492.0 322.6 492.2L355.5 492.5L355.5 546.0L355.5 599.5L278.2 599.8C216.9 600.0 200.8 599.8 200.5 598.8ZM576.5 586.8C576.2 586.1 576.1 545.7 576.2 497.0L576.5 408.5L678.0 408.5L779.5 408.5L779.5 498.0L779.5 587.5L678.2 587.8C597.7 588.0 576.8 587.8 576.5 586.8ZM299.1 566.9C310.1 555.9 312.1 553.5 311.8 551.2C311.5 548.7 311.1 548.5 306.8 548.2C302.2 547.9 301.8 548.1 297.0 552.9C294.1 555.8 292.0 558.8 292.0 560.1C292.0 561.4 289.7 564.4 286.0 568.0C282.7 571.2 280.0 574.1 280.0 574.4C280.0 575.1 285.1 579.9 285.8 580.0C286.0 580.0 292.0 574.1 299.1 566.9ZM483.1 571.0L488.1 566.0L487.8 559.3L487.5 552.5L484.3 552.2C482.3 552.0 480.6 551.1 480.0 549.9C479.3 548.7 477.9 548.0 476.0 548.0C474.1 548.0 472.7 548.7 472.0 549.9C471.4 551.1 469.7 552.0 467.7 552.2L464.5 552.5L464.5 562.0L464.5 571.5L467.7 571.8C469.7 572.0 471.4 572.9 472.0 574.1C473.9 577.5 477.7 576.4 483.1 571.0ZM524.0 574.1C524.6 572.9 526.3 572.0 528.3 571.8L531.5 571.5L531.5 562.0L531.5 552.5L528.3 552.2C526.3 552.0 524.6 551.1 524.0 549.9C523.3 548.7 521.9 548.0 520.0 548.0C518.1 548.0 516.7 548.7 516.0 549.9C515.4 551.1 513.7 552.0 511.7 552.2L508.5 552.5L508.5 562.0L508.5 571.5L511.7 571.8C513.7 572.0 515.4 572.9 516.0 574.1C516.7 575.3 518.1 576.0 520.0 576.0C521.9 576.0 523.3 575.3 524.0 574.1ZM252.0 542.0C252.7 540.8 254.1 540.0 255.8 540.0C257.7 540.0 259.5 538.8 262.0 536.0C264.1 533.6 266.4 532.0 267.8 532.0C269.3 532.0 273.0 529.0 279.0 523.0L288.0 514.1L288.0 507.6C288.0 501.1 287.3 500.0 283.4 500.0C282.7 500.0 278.5 503.6 274.1 508.0C269.2 512.9 265.3 516.0 264.0 516.0C261.2 516.0 252.0 525.3 252.0 528.0C252.0 531.0 246.9 535.8 243.4 536.2C240.4 536.5 239.1 539.3 240.4 542.6C241.3 545.0 250.7 544.5 252.0 542.0ZM531.0 523.0L536.0 518.1L536.0 486.0L536.0 453.8L533.1 450.9L530.2 448.0L500.0 448.0L469.9 448.0L465.0 453.0L460.0 457.9L460.0 488.0L460.0 518.1L464.8 523.0L469.5 527.9L497.8 527.9L526.1 528.0L531.0 523.0ZM480.4 502.9C480.0 502.2 480.6 501.0 481.8 500.1C483.8 498.6 484.0 497.4 484.2 485.5L484.5 472.5L495.4 472.2C505.0 472.0 506.5 471.7 507.7 470.0C508.5 468.9 509.8 468.0 510.6 468.0C511.8 468.0 512.0 470.7 511.8 485.8L511.5 503.5L496.3 503.8C485.6 504.0 480.9 503.7 480.4 502.9ZM104.7 411.3C104.3 411.0 104.0 406.7 104.0 401.9C104.0 394.2 104.2 392.9 105.9 392.0C107.1 391.4 108.0 389.7 108.2 387.7L108.5 384.5L115.4 384.2C121.0 384.0 122.6 383.5 124.1 381.7L126.0 379.5L127.9 381.8C130.6 384.9 141.0 385.0 143.8 382.0C145.6 380.1 146.7 380.0 160.6 380.2L175.5 380.5L175.5 384.0L175.5 387.5L154.2 388.0C135.2 388.4 132.7 388.7 131.9 390.2C131.2 391.5 129.6 392.0 126.4 392.0C120.1 392.0 116.0 396.0 116.0 402.0C116.0 405.3 115.4 406.8 113.1 409.1C110.4 411.8 106.2 412.9 104.7 411.3ZM200.7 383.3C200.3 383.0 200.0 375.8 200.0 367.3C200.0 354.5 200.2 352.0 201.5 352.0C202.3 352.0 203.4 352.9 204.0 354.0C204.6 355.1 205.7 356.0 206.5 356.0C207.2 356.0 208.2 355.1 208.5 354.0C209.1 352.0 210.0 352.0 258.0 352.0C305.9 352.0 307.0 352.0 308.0 354.0C309.0 355.9 310.1 356.0 342.0 356.0C373.9 356.0 375.0 355.9 376.0 354.0C376.9 352.3 378.1 352.0 384.0 352.0C389.9 352.0 391.1 352.3 392.0 354.0C393.0 355.8 394.1 356.0 404.0 356.0C413.9 356.0 415.0 355.8 416.0 354.0C417.0 352.0 418.1 352.0 460.0 352.0C501.6 352.0 503.0 352.1 504.0 354.0C504.8 355.6 506.3 356.0 512.3 356.2L519.5 356.5L519.5 370.0L519.5 383.5L360.4 383.8C272.9 383.9 201.0 383.7 200.7 383.3ZM700.0 382.6C700.0 381.9 701.0 380.5 702.2 379.7L704.5 378.1L702.0 376.0L699.5 373.9L701.8 372.3C704.5 370.4 704.6 368.3 702.0 367.5C700.1 366.9 700.0 366.0 700.0 352.0C700.0 338.3 700.2 337.0 701.9 336.0C703.1 335.4 704.0 333.7 704.2 331.7L704.5 328.5L721.3 328.2L738.1 328.0L741.1 330.9L744.0 333.9L743.8 358.7L743.5 383.5L721.8 383.8C703.7 384.0 700.0 383.8 700.0 382.6ZM702.8 305.0C699.5 301.6 699.2 297.5 702.0 296.0C703.7 295.1 704.0 293.7 704.2 283.7L704.5 272.5L724.0 272.5L743.5 272.5L743.5 290.0L743.5 307.5L724.5 307.7L705.5 307.9L702.8 305.0ZM704.4 250.7C704.2 250.0 704.1 241.1 704.2 231.0L704.5 212.5L724.0 212.5L743.5 212.5L743.8 229.3L744.0 246.1L741.1 249.1L738.2 252.0L721.5 252.0C709.0 252.0 704.8 251.7 704.4 250.7ZM700.4 186.9C700.0 186.2 700.6 185.0 701.8 184.1C703.8 182.6 704.0 181.5 704.2 165.5L704.5 148.5L721.3 148.2L738.1 148.0L741.1 150.9L744.0 153.9L743.8 170.7L743.5 187.5L722.3 187.8C707.1 188.0 700.9 187.7 700.4 186.9ZM661.1 117.1C663.7 114.5 664.0 113.5 664.0 108.0C664.0 102.0 663.9 101.8 659.0 97.0C656.2 94.2 653.2 92.0 652.0 92.0C650.6 92.0 645.7 87.8 638.0 80.0C626.7 68.5 625.9 68.0 622.0 68.0C618.4 68.0 617.3 68.6 613.0 73.0C607.6 78.3 606.5 82.1 609.9 84.0C611.1 84.6 612.0 86.3 612.2 88.3C612.5 91.0 612.9 91.6 615.4 91.8C617.5 92.1 621.3 95.2 630.1 104.1C639.0 113.0 642.5 116.0 644.4 116.0C645.9 116.0 647.4 116.8 648.0 118.0C649.8 121.3 657.4 120.8 661.1 117.1ZM804.0 114.0C807.5 110.4 810.6 108.0 811.9 108.0C814.8 108.0 840.0 82.8 840.0 80.0C840.0 78.8 837.8 75.7 835.0 73.0C830.7 68.6 829.6 68.0 826.0 68.0C822.1 68.0 821.3 68.5 812.0 78.0C805.7 84.4 801.4 88.0 800.0 88.0C798.8 88.0 795.2 90.8 791.0 95.0L784.0 101.9L784.0 108.0C784.0 116.1 787.1 119.9 793.9 120.0C797.9 120.0 798.6 119.6 804.0 114.0ZM731.0 91.0L736.0 86.1L736.0 60.0L736.0 33.9L731.0 29.0C724.8 22.7 723.2 22.7 716.9 29.0L712.0 33.9L712.2 62.7L712.5 91.5L715.7 91.8C717.7 92.0 719.4 92.9 720.0 94.1C721.9 97.5 725.7 96.4 731.0 91.0Z"/></svg>