<svg xmlns="http://www.w3.org/2000/svg" viewBox="0 0 1036 676"><path fill="#5aa9f5" fill-rule="evenodd" d="M0.0 338.0L0.0 0.0L518.0 0.0L1036.0 0.0L1036.0 338.0L1036.0 676.0L518.0 676.0L0.0 676.0L0.0 338.0ZM68.0 646.0C68.8 644.4 70.1 644.0 74.0 644.0C77.9 644.0 79.2 644.4 80.0 646.0C80.9 647.7 82.1 648.0 88.0 648.0C93.9 648.0 95.1 647.7 96.0 646.0C97.0 644.1 98.1 644.0 132.0 644.0C165.9 644.0 167.0 644.1 168.0 646.0C168.8 647.6 170.1 648.0 174.0 648.0C177.9 648.0 179.2 647.6 180.0 646.0C181.0 644.1 182.1 644.0 199.6 644.0L218.2 644.0L221.1 641.1C223.7 638.4 224.0 637.5 224.0 631.6C224.0 626.1 223.7 624.9 222.0 624.0C219.3 622.5 219.3 617.5 222.0 616.0C223.9 615.0 224.0 613.9 224.0 586.0C224.0 558.1 223.9 557.0 222.0 556.0C219.3 554.5 219.3 549.4 222.0 548.5C224.6 547.7 224.6 545.4 222.0 544.0C219.5 542.6 219.4 540.3 221.9 539.5C223.0 539.2 224.1 538.3 224.4 537.5C225.2 535.2 230.7 535.6 232.0 538.0C233.0 539.9 234.3 540.0 284.3 540.2L335.5 540.5L335.8 579.7C336.0 618.1 336.0 618.9 334.0 620.0C331.1 621.6 331.1 630.6 334.0 631.5C336.6 632.3 336.6 634.6 334.0 636.0C331.5 637.4 331.4 639.7 333.9 640.5C335.2 640.9 336.0 642.2 336.2 644.3L336.5 647.5L417.3 647.8L498.1 648.0L501.1 645.1L504.0 642.2L504.2 591.3L504.5 540.5L562.0 540.5L619.5 540.5L620.0 594.0L620.5 647.5L701.3 647.8L782.1 648.0L785.1 645.1L788.0 642.2L788.2 591.3L788.5 540.5L844.0 540.5L899.5 540.5L899.8 591.3L900.0 642.2L902.9 645.1L905.8 648.0L954.0 648.0L1002.2 648.0L1005.1 645.1C1009.2 641.0 1009.2 635.0 1005.1 630.9L1002.2 628.0L959.3 627.8L916.5 627.5L916.0 576.0L915.5 524.5L846.7 524.2L777.9 524.0L774.9 526.9L772.0 529.8L771.8 580.7L771.5 631.5L704.0 631.5L636.5 631.5L636.2 580.7L636.0 529.8L633.1 526.9L630.2 524.0L562.0 524.0L493.8 524.0L490.9 526.9L488.0 529.8L487.8 580.7L487.5 631.5L420.0 631.5L352.5 631.5L352.2 580.7L352.0 529.8L349.1 526.9L346.2 524.0L321.6 524.0C298.1 524.0 297.0 523.9 296.0 522.0C295.0 520.1 293.9 520.0 272.0 520.0C250.1 520.0 249.0 520.1 248.0 522.0C247.0 523.8 245.9 524.0 236.4 524.0C226.7 524.0 225.7 523.8 223.9 521.8L222.0 519.5L220.1 521.8C218.7 523.4 217.1 524.0 214.0 524.0C210.7 524.0 209.2 524.6 206.9 526.9L204.0 529.8L203.8 578.7L203.5 627.5L118.7 627.8L33.8 628.0L30.9 630.9C26.9 634.9 26.8 640.9 30.8 645.0L33.5 647.9L50.2 648.0C65.9 648.0 67.0 647.9 68.0 646.0ZM496.0 402.1C496.6 400.9 498.3 400.0 500.3 399.8L503.5 399.5L503.8 350.7L504.0 301.8L506.9 298.9L509.8 296.0L556.4 296.0C601.9 296.0 603.0 296.0 604.0 298.0C605.5 300.7 609.7 300.6 612.0 297.8L613.8 295.5L616.9 298.5L619.9 301.5L620.0 349.8L620.0 398.2L622.9 401.1L625.8 404.0L668.0 404.0L710.2 404.0L712.1 401.8L714.0 399.5L715.9 401.8C717.8 404.0 717.9 404.0 748.4 404.0C777.6 404.0 779.0 403.9 780.0 402.1C780.6 400.9 782.3 400.0 784.3 399.8L787.5 399.5L788.0 350.0L788.5 300.5L837.3 300.2L886.1 300.0L889.1 302.9L892.0 305.8L892.2 352.7L892.5 399.5L950.0 399.5L1007.5 399.5L1007.5 392.0L1007.5 384.5L958.0 384.0L908.5 383.5L908.2 336.7L908.0 289.8L905.1 286.9L902.2 284.0L840.0 284.0L777.8 284.0L774.9 286.9L772.0 289.8L771.8 336.7L771.5 383.5L706.6 383.8C643.0 384.0 641.6 384.1 640.3 386.0C639.5 387.1 638.2 388.0 637.4 388.0C636.2 388.0 636.0 380.8 636.0 336.9L636.0 285.8L633.1 282.9L630.2 280.0L562.0 280.0L493.8 280.0L490.9 282.9L488.0 285.8L487.8 334.7L487.5 383.5L428.7 383.8L369.8 384.0L367.9 386.3L366.0 388.5L364.1 386.2C361.7 383.5 357.9 383.3 356.2 386.0C355.5 387.1 354.3 388.0 353.5 388.0C352.2 388.0 352.0 381.5 352.0 337.0L352.0 285.9L347.0 281.0L342.1 276.0L278.0 276.0L213.9 276.0L209.0 280.9L204.0 285.9L203.8 334.7L203.5 383.5L116.0 384.0L28.5 384.5L28.5 392.0L28.5 399.5L124.0 399.5L219.5 399.5L219.8 396.3C220.0 394.3 220.9 392.6 222.1 392.0C223.9 391.0 224.0 389.7 224.0 372.0C224.0 354.1 223.9 353.0 222.0 352.0C219.0 350.4 219.0 329.6 222.0 328.0C223.8 327.0 224.0 325.7 224.2 309.7L224.5 292.5L277.3 292.2L330.1 292.0L333.1 294.9L336.0 297.8L336.0 318.4C336.0 337.9 335.9 339.0 334.0 340.0C332.4 340.8 332.0 342.1 332.0 346.0C332.0 349.9 332.4 351.2 334.0 352.0C335.9 353.0 336.0 354.1 336.0 375.6L336.0 398.1L338.8 401.0L341.5 403.9L418.2 404.0C493.1 404.0 495.0 404.0 496.0 402.1ZM392.0 150.0C393.0 148.1 394.1 148.0 416.0 148.0C437.9 148.0 439.0 148.1 440.0 150.0C441.0 151.9 442.1 152.0 468.0 152.0C493.6 152.0 495.0 151.9 496.0 150.1C496.6 148.9 498.3 148.0 500.3 147.8L503.5 147.5L504.0 94.0L504.5 40.5L559.3 40.2L614.1 40.0L617.1 42.9L620.0 45.8L620.2 96.7L620.5 147.5L623.4 147.8C625.0 148.0 627.1 149.1 628.2 150.3L630.0 152.5L631.9 150.2C634.5 147.2 642.4 147.0 644.0 150.0C645.0 151.9 646.1 152.0 674.0 152.0C701.9 152.0 703.0 151.9 704.0 150.0C704.9 148.2 706.1 148.0 714.0 148.0C721.9 148.0 723.1 148.2 724.0 150.0C725.0 151.9 726.1 152.0 745.6 152.0C765.7 152.0 766.2 151.9 768.1 149.7L770.0 147.5L771.9 149.8C774.8 153.2 781.3 152.9 785.1 149.1C787.7 146.4 788.0 145.5 788.0 139.6C788.0 134.1 788.3 132.9 790.0 132.0C791.7 131.1 792.0 129.9 792.0 124.0C792.0 118.1 791.7 116.9 790.0 116.0C788.1 115.0 788.0 113.9 788.0 86.0C788.0 58.1 788.1 57.0 790.0 56.0C792.7 54.5 792.7 49.4 790.0 48.5C787.2 47.6 787.5 46.0 790.9 42.7L793.8 40.0L846.7 40.2L899.5 40.5L900.0 94.0L900.5 147.5L954.0 147.5L1007.5 147.5L1007.5 140.0L1007.5 132.5L962.0 132.0L916.5 131.5L916.2 80.7L916.0 29.8L913.1 26.9L910.2 24.0L846.0 24.0L781.9 24.0L777.0 28.9L772.0 33.9L771.8 82.7L771.5 131.5L752.3 131.8C734.3 132.0 733.0 132.2 732.0 134.0C730.4 137.1 705.6 137.0 704.0 134.0C703.0 132.1 701.9 132.0 680.0 132.0C658.1 132.0 657.0 132.1 656.0 134.0C655.3 135.3 653.9 136.0 652.0 136.0C650.1 136.0 648.7 135.3 648.0 134.0C647.3 132.8 645.9 132.0 644.2 132.0C642.6 132.0 641.0 132.8 640.2 134.0C639.5 135.1 638.3 136.0 637.5 136.0C636.2 136.0 636.0 129.3 636.0 82.9L636.0 29.8L633.1 26.9L630.2 24.0L562.0 24.0L493.8 24.0L490.9 26.9L488.0 29.8L487.8 82.7L487.5 135.5L484.3 135.8C481.9 136.0 480.9 135.6 480.0 134.1C479.0 132.1 478.1 132.0 456.0 132.0C434.1 132.0 433.0 132.1 432.0 134.0C431.0 135.9 429.9 136.0 406.0 136.0C382.1 136.0 381.0 135.9 380.0 134.0C378.4 131.0 370.5 131.2 367.9 134.2L366.0 136.5L364.1 134.2C361.7 131.5 357.9 131.3 356.2 134.0C355.5 135.1 354.3 136.0 353.5 136.0C352.2 136.0 352.0 129.3 352.0 82.9L352.0 29.8L349.1 26.9L346.2 24.0L278.0 24.0L209.8 24.0L206.9 26.9L204.0 29.8L203.8 80.7L203.5 131.5L116.0 132.0L28.5 132.5L28.5 140.0L28.5 147.5L124.0 147.5L219.5 147.5L219.8 144.5C220.0 142.8 221.1 140.7 222.3 139.7L224.5 137.9L222.2 136.3C219.0 134.1 218.8 117.7 222.0 116.0C223.9 115.0 224.0 113.7 224.2 77.7L224.5 40.5L277.4 40.2L330.2 40.0L333.4 43.1L336.5 46.2L334.2 47.7C332.3 49.0 332.0 50.1 332.0 56.0C332.0 61.9 332.3 63.0 334.2 64.4L336.5 66.0L334.2 67.6C331.0 70.0 330.8 86.3 334.0 88.0C335.9 89.0 336.0 90.1 336.0 117.6L336.0 146.1L338.8 149.0L341.5 151.9L366.2 152.0C389.9 152.0 391.0 151.9 392.0 150.0Z"/></svg>